<svg width="520" height="521" viewBox="0 0 520 521" fill="none" xmlns="http://www.w3.org/2000/svg">
<circle cx="260" cy="260.223" r="258.3" stroke="#4EBFFF" stroke-width="3"/>
<path d="M230.405 356.178C229.663 356.996 229.724 358.261 230.542 359.003C231.359 359.746 232.624 359.685 233.367 358.867L230.405 356.178ZM283.304 357.884C284.118 358.63 285.383 358.575 286.129 357.761C286.876 356.947 286.821 355.681 286.007 354.935L283.304 357.884ZM182.347 99.4918C181.992 98.4457 180.857 97.8851 179.811 98.2397C178.764 98.5943 178.204 99.7298 178.559 100.776L182.347 99.4918ZM189.359 126.407V128.407C190.004 128.407 190.609 128.096 190.984 127.572C191.36 127.048 191.46 126.376 191.253 125.765L189.359 126.407ZM169.765 126.407V124.407C169.092 124.407 168.465 124.745 168.095 125.308C167.725 125.87 167.662 126.58 167.928 127.198L169.765 126.407ZM181.733 159.26C182.17 160.275 183.346 160.743 184.361 160.306C185.375 159.87 185.844 158.693 185.407 157.678L181.733 159.26ZM120.857 113.641C120.447 112.615 119.283 112.117 118.257 112.527C117.232 112.937 116.733 114.101 117.143 115.127L120.857 113.641ZM148.39 155.798L148.858 157.742C149.508 157.586 150.036 157.115 150.267 156.489C150.498 155.862 150.401 155.161 150.008 154.621L148.39 155.798ZM124.344 161.587L123.876 159.642C123.243 159.794 122.723 160.246 122.484 160.851C122.244 161.457 122.315 162.141 122.672 162.685L124.344 161.587ZM143.157 193.857C143.763 194.78 145.003 195.036 145.926 194.43C146.849 193.823 147.106 192.583 146.499 191.66L143.157 193.857ZM233.367 358.867C247.795 342.975 270.537 346.181 283.304 357.884L286.007 354.935C272.055 342.146 246.703 338.227 230.405 356.178L233.367 358.867ZM178.559 100.776L187.465 127.049L191.253 125.765L182.347 99.4918L178.559 100.776ZM189.359 124.407H169.765V128.407H189.359V124.407ZM167.928 127.198L181.733 159.26L185.407 157.678L171.602 125.616L167.928 127.198ZM117.143 115.127C117.262 115.424 117.474 115.778 117.64 116.047C117.839 116.37 118.1 116.774 118.41 117.243C119.034 118.184 119.888 119.433 120.914 120.91C122.969 123.867 125.735 127.772 128.773 132.023C134.848 140.527 142.021 150.44 146.773 156.974L150.008 154.621C145.26 148.093 138.094 138.189 132.027 129.698C128.993 125.451 126.238 121.563 124.199 118.628C123.179 117.159 122.344 115.939 121.745 115.034C121.445 114.581 121.211 114.219 121.046 113.951C120.848 113.629 120.827 113.566 120.857 113.641L117.143 115.127ZM147.922 153.853L123.876 159.642L124.812 163.531L148.858 157.742L147.922 153.853ZM122.672 162.685L143.157 193.857L146.499 191.66L126.015 160.488L122.672 162.685Z" fill="#4EBFFF"/>
<path d="M359.536 248.893V316.974C359.536 372.941 314.166 418.311 258.198 418.311C202.231 418.311 156.861 372.941 156.861 316.974V248.893C156.861 192.926 202.231 147.555 258.198 147.555C314.166 147.555 359.536 192.926 359.536 248.893Z" stroke="#4EBFFF" stroke-width="4"/>
<path d="M306.315 289.485C307.105 288.713 307.119 287.446 306.347 286.656C305.575 285.867 304.308 285.852 303.519 286.624L306.315 289.485ZM285.1 307.425L283.702 305.995C283.2 306.486 282.992 307.204 283.154 307.886C283.316 308.569 283.824 309.118 284.493 309.331L285.1 307.425ZM310.321 317.569C311.373 317.905 312.498 317.324 312.834 316.271C313.169 315.219 312.588 314.094 311.536 313.758L310.321 317.569ZM306.315 289.485C307.105 288.713 307.119 287.446 306.347 286.656C305.575 285.867 304.308 285.852 303.519 286.624L306.315 289.485ZM285.1 307.425L283.702 305.995C283.2 306.486 282.992 307.204 283.154 307.886C283.316 308.569 283.824 309.118 284.493 309.331L285.1 307.425ZM310.321 317.569C311.373 317.905 312.498 317.324 312.834 316.271C313.169 315.219 312.588 314.094 311.536 313.758L310.321 317.569ZM303.519 286.624L283.702 305.995L286.498 308.856L306.315 289.485L303.519 286.624ZM284.493 309.331L310.321 317.569L311.536 313.758L285.708 305.52L284.493 309.331ZM303.519 286.624L283.702 305.995L286.498 308.856L306.315 289.485L303.519 286.624ZM284.493 309.331L310.321 317.569L311.536 313.758L285.708 305.52L284.493 309.331Z" fill="#4EBFFF"/>
<path d="M210.384 288.463C209.594 287.691 209.58 286.425 210.352 285.635C211.124 284.845 212.39 284.831 213.18 285.603L210.384 288.463ZM232.331 307.121L233.729 305.69C234.231 306.181 234.439 306.899 234.277 307.582C234.116 308.265 233.608 308.813 232.939 309.026L232.331 307.121ZM206.156 317.569C205.103 317.905 203.978 317.324 203.643 316.271C203.307 315.219 203.888 314.094 204.94 313.758L206.156 317.569ZM210.384 288.463C209.594 287.691 209.58 286.425 210.352 285.635C211.124 284.845 212.39 284.831 213.18 285.603L210.384 288.463ZM232.331 307.121L233.729 305.69C234.231 306.181 234.439 306.899 234.277 307.582C234.116 308.265 233.608 308.813 232.939 309.026L232.331 307.121ZM206.156 317.569C205.103 317.905 203.978 317.324 203.643 316.271C203.307 315.219 203.888 314.094 204.94 313.758L206.156 317.569ZM213.18 285.603L233.729 305.69L230.933 308.551L210.384 288.463L213.18 285.603ZM232.939 309.026L206.156 317.569L204.94 313.758L231.723 305.215L232.939 309.026ZM213.18 285.603L233.729 305.69L230.933 308.551L210.384 288.463L213.18 285.603ZM232.939 309.026L206.156 317.569L204.94 313.758L231.723 305.215L232.939 309.026Z" fill="#4EBFFF"/>
<path d="M396.873 102.36H334.084L297.124 187.414H323.842C323.842 187.414 316.272 209.903 307.366 235.508C307.366 240.406 308.702 245.082 315.381 241.742C315.381 241.742 423.146 167.821 396.873 165.594H365.701L396.873 102.36Z" fill="white"/>
<path d="M334.084 102.36V100.36C333.288 100.36 332.567 100.833 332.25 101.563L334.084 102.36ZM396.873 102.36L398.667 103.245C398.972 102.625 398.936 101.891 398.571 101.304C398.206 100.717 397.564 100.36 396.873 100.36V102.36ZM365.701 165.594L363.907 164.71C363.602 165.33 363.638 166.064 364.003 166.651C364.368 167.237 365.01 167.594 365.701 167.594V165.594ZM396.873 165.594L397.042 163.601C396.986 163.597 396.929 163.594 396.873 163.594V165.594ZM315.381 241.742L316.276 243.531C316.358 243.49 316.437 243.443 316.513 243.391L315.381 241.742ZM307.366 235.508L305.477 234.851C305.403 235.062 305.366 235.284 305.366 235.508H307.366ZM323.842 187.414L325.738 188.053C325.943 187.442 325.842 186.77 325.466 186.247C325.091 185.724 324.486 185.414 323.842 185.414V187.414ZM297.124 187.414L295.289 186.617C295.021 187.236 295.082 187.948 295.451 188.511C295.821 189.075 296.45 189.414 297.124 189.414V187.414ZM334.084 104.36H396.873V100.36H334.084V104.36ZM395.079 101.476L363.907 164.71L367.495 166.479L398.667 103.245L395.079 101.476ZM365.701 167.594H396.873V163.594H365.701V167.594ZM314.487 239.953C312.977 240.708 311.991 240.893 311.396 240.868C310.888 240.846 310.613 240.676 310.387 240.413C310.105 240.083 309.828 239.506 309.635 238.6C309.445 237.713 309.366 236.655 309.366 235.508H305.366C305.366 236.81 305.453 238.173 305.723 239.436C305.989 240.68 306.464 241.982 307.35 243.016C308.294 244.117 309.605 244.795 311.226 244.864C312.76 244.929 314.446 244.446 316.276 243.531L314.487 239.953ZM309.255 236.165C313.71 223.357 317.83 211.329 320.837 202.504C322.34 198.091 323.565 194.479 324.415 191.969C324.839 190.715 325.17 189.736 325.395 189.07C325.507 188.738 325.593 188.483 325.65 188.312C325.679 188.226 325.701 188.162 325.716 188.118C325.723 188.096 325.728 188.08 325.732 188.069C325.734 188.064 325.735 188.059 325.736 188.057C325.737 188.055 325.737 188.054 325.737 188.054C325.738 188.053 325.738 188.053 325.738 188.053C325.738 188.053 325.738 188.053 323.842 187.414C321.947 186.776 321.947 186.776 321.947 186.777C321.947 186.777 321.947 186.777 321.946 186.777C321.946 186.778 321.946 186.779 321.945 186.78C321.945 186.783 321.943 186.787 321.941 186.793C321.938 186.803 321.932 186.82 321.925 186.841C321.91 186.885 321.889 186.949 321.86 187.034C321.802 187.205 321.717 187.459 321.605 187.791C321.38 188.456 321.05 189.434 320.626 190.687C319.777 193.194 318.553 196.804 317.051 201.214C314.046 210.034 309.928 222.053 305.477 234.851L309.255 236.165ZM323.842 185.414H297.124V189.414H323.842V185.414ZM298.958 188.212L335.919 103.157L332.25 101.563L295.289 186.617L298.958 188.212ZM396.704 167.587C398.161 167.711 398.703 168.058 398.863 168.22C398.916 168.274 399.085 168.434 398.951 169.126C398.806 169.877 398.34 170.951 397.429 172.364C396.534 173.749 395.289 175.34 393.726 177.106C387.446 184.205 376.563 193.559 364.737 202.936C352.943 212.288 340.322 221.577 330.642 228.533C325.804 232.01 321.704 234.901 318.814 236.923C317.369 237.934 316.227 238.727 315.447 239.267C315.057 239.537 314.757 239.744 314.555 239.883C314.454 239.953 314.378 240.005 314.326 240.04C314.301 240.058 314.282 240.071 314.269 240.08C314.262 240.084 314.258 240.088 314.255 240.09C314.253 240.091 314.252 240.092 314.251 240.092C314.25 240.093 314.25 240.093 315.381 241.742C316.513 243.391 316.513 243.391 316.514 243.39C316.515 243.39 316.516 243.389 316.518 243.388C316.521 243.385 316.526 243.382 316.533 243.377C316.546 243.368 316.566 243.355 316.592 243.337C316.645 243.301 316.722 243.247 316.824 243.177C317.029 243.036 317.331 242.828 317.724 242.556C318.509 242.012 319.656 241.215 321.107 240.2C324.008 238.171 328.122 235.269 332.976 231.781C342.681 224.807 355.359 215.477 367.222 206.07C379.054 196.689 390.186 187.145 396.722 179.757C398.363 177.902 399.747 176.147 400.789 174.533C401.813 172.946 402.591 171.369 402.878 169.885C403.177 168.343 402.967 166.686 401.712 165.413C400.564 164.247 398.869 163.756 397.042 163.601L396.704 167.587Z" fill="#4EBFFF"/>
<path d="M200.937 215.469C231.218 243.523 314.135 263.295 355.459 262.226M198.71 217.696C198.117 227.344 189.003 249.758 157.297 262.226M359.467 257.328C397.764 251.984 408.006 312.546 359.467 331.695" stroke="#4EBFFF" stroke-width="4" stroke-linecap="round"/>
<path d="M156.642 262.803C118.266 257.448 108.002 318.137 156.642 337.325" stroke="#4EBFFF" stroke-width="4" stroke-linecap="round"/>
</svg>
