<svg width="521" height="520" viewBox="0 0 521 520" fill="none" xmlns="http://www.w3.org/2000/svg">
<circle cx="260.486" cy="260.2" r="258.3" stroke="#4EBFFF" stroke-width="3"/>
<path d="M381.303 259.223H364.702L358.428 289.026H366.663L356.859 319.876L380.127 282.752H372.937L381.303 259.223Z" fill="white" stroke="#4EBFFF" stroke-width="2" stroke-linecap="round" stroke-linejoin="round"/>
<path d="M424.44 297.131C424.963 296.346 411.76 289.288 410.715 288.765L390.061 310.856L396.467 314.778L372.153 338.176L413.198 317.392L405.225 313.732C411.455 308.46 424.022 297.758 424.44 297.131Z" fill="white" stroke="#4EBFFF" stroke-width="2" stroke-linecap="round" stroke-linejoin="round"/>
<path d="M450.845 349.156L442.479 333.47L413.068 342.228L416.467 349.156L386.794 356.999L428.493 357.653L425.617 352.293L450.845 349.156Z" fill="white" stroke="#4EBFFF" stroke-width="2" stroke-linecap="round" stroke-linejoin="round"/>
<path d="M98.4313 198.047C93.9868 218.439 93.4639 242.099 94.5097 249.55C97.2548 258.596 102.876 262.229 107.843 270.726C103.006 288.373 97.124 309.288 97.124 315.693C97.124 320.006 108.428 322.049 115.817 318.569M98.4313 198.047C106.274 200.531 106.797 215.825 118.562 219.223C143.398 222.36 162.352 192.949 171.11 196.348C196.731 216.87 179.476 220.008 207.188 249.55C203.659 219.223 213.172 208.359 231.763 208.766C252.682 209.224 252.939 244.19 242.22 261.314M98.4313 198.047C93.7781 196.574 77.6471 211.38 73.5949 208.112C68.1048 194.692 63.9217 174.649 103.921 142.884C193.463 82.885 248.103 104.584 261.567 111.512C290.847 129.813 300.002 161.912 308.625 200.139C311.893 235.432 307.71 281.183 307.71 281.183M115.817 318.569C120.921 315.71 123.13 312.8 128.235 309.941M115.817 318.569C119.492 328.166 119.084 333.078 124.575 341.836M124.575 341.836C133.333 336.869 137.646 336.608 151.11 338.83M124.575 341.836C128.235 348.503 131.632 350.41 135.294 356.477C137.646 364.45 132.026 375.038 146.012 381.051C162.875 383.666 193.463 370.594 193.463 370.594M193.463 370.594C193.463 370.594 221.436 351.771 218.691 335.823M193.463 370.594C193.463 370.594 224.723 366.452 231.763 378.176C242.222 395.591 198.822 418.437 198.822 418.437L251.109 388.11M307.71 281.183C307.71 281.183 309.148 299.876 315.422 307.065C345.879 349.81 368.101 347.718 384.441 418.437M307.71 281.183C307.71 281.183 289.54 306.02 273.331 307.065C251.772 305.642 254.37 279.181 242.22 261.314M242.22 261.314C237.116 267.032 234.254 270.237 229.149 275.955M130.065 275.955H140.522M120.13 257.654C123.79 255.301 135.11 252.007 151.11 257.654M229.149 235.694C229.41 237.262 242.22 243.014 229.149 255.563" stroke="#4EBFFF" stroke-width="4" stroke-linecap="round" stroke-linejoin="round"/>
</svg>
