<svg width="520" height="521" viewBox="0 0 520 521" fill="none" xmlns="http://www.w3.org/2000/svg">
<circle cx="259.91" cy="260.223" r="258.3" stroke="#4EBFFF" stroke-width="3"/>
<path d="M159.449 195.184C166.959 205.448 177.298 230.431 158.572 248.255C150.937 243.874 161.577 213.584 159.449 195.184Z" fill="#4EBFFF"/>
<path d="M181.729 183.668C182.73 204.196 185.634 245.652 189.239 247.254C193.745 249.257 234.3 251.76 238.305 251.76M119.144 310.84C117.971 308.884 116.14 305.833 116.14 305.833C117.475 302.495 121.247 295.219 125.653 292.815C130.059 290.412 121.022 273.539 122.649 264.277C123.472 259.592 135.091 262.675 138.295 256.266C142.3 248.255 121.272 228.353 123.775 225.725C126.029 221.344 147.808 209.328 144.178 191.679C141.174 150.874 170.714 103.059 208.265 98.8036C242.728 91.8776 327.926 83.2826 363.474 112.822C426.058 173.404 407.355 293.693 371.485 310.84C358.968 320.102 315.409 327.112 274.854 314.595M119.144 310.84C117.142 317.015 113.737 329.565 116.14 330.366C121.022 330.691 126.957 331.036 133.391 331.345M119.144 310.84C125.653 307.836 129.658 308.336 135.166 310.84C141.641 308.034 146.435 309.136 150.687 311.097M206.387 318.725C207.201 320.478 206.888 325.109 199.127 329.615C195.566 331.683 182.941 332.354 167.96 332.317M206.387 318.725C210.893 313.468 216.939 318.725 216.939 318.725M206.387 318.725C199.127 314.595 199.127 309.087 184.983 312.091C176.972 309.338 173.718 309.087 167.96 312.091M216.939 318.725C219.901 326.984 222.468 336.794 222.784 345.386C222.784 347.555 222.394 350.019 221.853 352.373M216.939 318.725C214.032 310.622 210.744 304.013 208.828 301.515C205.323 296.946 210.58 289.06 215.9 292.502C217.411 293.258 219.715 295.1 222.784 296.937M147.926 398.185C148.892 399.43 149.833 400.858 150.687 402.589C156.285 413.939 148.434 432.879 162.202 432.879C190.491 424.493 242.661 387.593 260.084 373.174C277.508 358.754 272.184 298.406 265.592 270.786C262.463 266.53 254.427 269.847 254.427 274.941C255.14 296.758 251.448 298.698 244.125 301.077C235.005 302.986 227.851 299.969 222.784 296.937M147.926 398.185C143.504 392.484 140.924 391.073 139.422 380.684C139.294 378.229 143.229 377.598 147.593 374.415M147.926 398.185C151.938 398.185 152.94 396.933 156.945 392.95M156.945 392.95C168.711 394.953 172.216 390.948 176.972 384.439M156.945 392.95L147.593 374.415M176.972 384.439C186.485 385.816 188.237 381.936 191.993 376.679M176.972 384.439L166.514 363.94M191.993 376.679C199.127 378.806 201.756 374.551 203.383 370.17M191.993 376.679L184.983 356.642M203.383 370.17C211.769 371.296 218.111 363.536 219.279 360.657C219.97 358.954 221.07 355.78 221.853 352.373M203.383 370.17L201.854 351.926M147.593 374.415C152.321 370.966 159.071 367.313 166.514 363.94M166.514 363.94C172.455 361.247 178.837 358.733 184.983 356.642M184.983 356.642C191.054 354.578 196.895 352.926 201.854 351.926M201.854 351.926C208.193 350.647 211.687 349.767 214.816 350.894C218.822 351.926 221.853 352.373 221.853 352.373M167.96 312.091C162.202 309.338 158.572 308.336 152.69 312.091C152.033 311.746 151.367 311.411 150.687 311.097M167.96 312.091V332.317M170.714 287.058V304.081M147.926 287.058L142.676 301.077M135.166 312.091L133.391 331.345M133.391 331.345C138.906 331.609 144.787 331.846 150.687 332.02M150.687 311.097V332.02M150.687 332.02C156.541 332.193 162.412 332.303 167.96 332.317M184.983 314.595V329.615M203.383 318.725V323.357M222.784 296.937C223.535 286.885 231.246 267.181 256.079 268.783M159.449 195.184C166.959 205.448 177.298 230.431 158.572 248.255C150.937 243.874 161.577 213.584 159.449 195.184Z" stroke="#4EBFFF" stroke-width="3" stroke-linecap="round"/>
<path d="M311.311 192.256L295.075 187.456L276.472 215.899L286.534 218.873L265.807 250.293L302.609 217.906L293.577 215.236L311.311 192.256Z" fill="white"/>
<path d="M319.266 259.134L346.424 248.016L334.518 235.296L303.854 251.967L309.651 259.276L278.072 275.676L325.528 265.71L319.266 259.134Z" fill="white"/>
<path d="M311.311 192.256L295.075 187.456L276.472 215.899L286.534 218.873L265.807 250.293L302.609 217.906L293.577 215.236L311.311 192.256Z" stroke="#4EBFFF" stroke-width="2"/>
<path d="M319.266 259.134L346.424 248.016L334.518 235.296L303.854 251.967L309.651 259.276L278.072 275.676L325.528 265.71L319.266 259.134Z" stroke="#4EBFFF" stroke-width="2"/>
</svg>
