<svg width="190" height="223" viewBox="0 0 190 223" fill="none" xmlns="http://www.w3.org/2000/svg">
<path d="M41.3159 217.563C48.719 227.022 57.7673 221.504 61.3661 217.563C72.8051 207.795 71.9056 164.995 81.1594 150.215C93.6267 137.748 105.322 144.731 110.978 150.215C120.232 164.353 122.931 205.61 129.486 213.964C138.226 223.218 147.994 218.848 152.62 213.964C156.091 208.437 157.233 197.92 159.561 187.488C163.674 159.212 168.301 118.083 168.301 118.083C168.901 112.856 177.041 101.246 185.266 83.6376C192.721 64.1015 190.322 42.2519 185.266 30.9415C180.554 21.9446 165.782 3.95081 144.395 3.95081C123.008 3.95081 111.663 12.6907 108.664 17.0606C111.149 17.9174 117.25 21.2763 121.774 27.8569C126.298 34.4375 120.746 36.254 117.404 36.3396C114.319 35.8255 110.078 33.6406 105.837 30.9415C101.595 28.2424 76.618 11.6624 63.1655 3.95081C41.3159 -4.78903 18.179 5.98095 6.87085 24.7722C-0.744022 37.4262 -0.845212 62.6997 5.32827 83.6376C9.37085 97.3484 18.3866 108.52 23.3221 115.512C29.4914 124.252 32.0619 205.738 41.3159 217.563Z" fill="white"/>
</svg>
