<svg width="28" height="34" viewBox="0 0 28 34" fill="none" xmlns="http://www.w3.org/2000/svg">
<path d="M6.35347 31.7847C7.39916 33.1208 8.67722 32.3414 9.18554 31.7847C10.8013 30.4049 10.6742 24.3595 11.9813 22.2718C13.7423 20.5108 15.3943 21.4972 16.1931 22.2718C17.5003 24.2688 17.8815 30.0963 18.8074 31.2763C20.0419 32.5835 21.4216 31.9662 22.0751 31.2763C22.5653 30.4957 22.7267 29.0101 23.0555 27.5366C23.6364 23.5426 24.29 17.7332 24.29 17.7332C24.3747 16.9949 25.5245 15.355 26.6863 12.8678C27.7393 10.1084 27.4004 7.02215 26.6863 5.42456C26.0207 4.15376 23.9341 1.61215 20.9133 1.61215C17.8924 1.61215 16.29 2.84665 15.8664 3.46389C16.2173 3.58492 17.0791 4.05936 17.7181 4.98886C18.3571 5.91836 17.5729 6.17494 17.1009 6.18705C16.6651 6.11443 16.0661 5.8058 15.467 5.42456C14.8678 5.04332 11.3399 2.70141 9.43971 1.61215C6.35347 0.377657 3.08541 1.89891 1.48814 4.55315C0.412545 6.34052 0.398252 9.91039 1.27025 12.8678C1.84126 14.8045 3.11473 16.3825 3.81186 17.3701C4.68327 18.6046 5.04635 30.1145 6.35347 31.7847Z" stroke="#4EBFFF"/>
</svg>
